solid OpenSCAD_Model
  facet normal -1 0 0
    outer loop
      vertex 0 6.35889 6.45818
      vertex 0 10 7.9
      vertex 0 10 0
    endloop
  endfacet
  facet normal -1 -0 0
    outer loop
      vertex 0 10 7.9
      vertex 0 7.79193 7.72774
      vertex 0 7.85726 7.9
    endloop
  endfacet
  facet normal -1 0 0
    outer loop
      vertex 0 10 7.9
      vertex 0 6.35889 6.45818
      vertex 0 7.79193 7.72774
    endloop
  endfacet
  facet normal -1 0 0
    outer loop
      vertex 0 10 0
      vertex 0 5.42945 6.22909
      vertex 0 6.35889 6.45818
    endloop
  endfacet
  facet normal -1 0 0
    outer loop
      vertex 0 10 0
      vertex 0 4.5 6
      vertex 0 5.42945 6.22909
    endloop
  endfacet
  facet normal -1 0 0
    outer loop
      vertex 0 0 0
      vertex 0 4.5 6
      vertex 0 10 0
    endloop
  endfacet
  facet normal -1 -0 0
    outer loop
      vertex 0 4.5 6
      vertex 0 0 0
      vertex 0 3.57055 6.22909
    endloop
  endfacet
  facet normal -1 -0 0
    outer loop
      vertex 0 3.57055 6.22909
      vertex 0 0 0
      vertex 0 2.64111 6.45818
    endloop
  endfacet
  facet normal -1 0 0
    outer loop
      vertex 0 0 7.9
      vertex 0 2.64111 6.45818
      vertex 0 0 0
    endloop
  endfacet
  facet normal -1 0 0
    outer loop
      vertex 0 2.64111 6.45818
      vertex 0 0 7.9
      vertex 0 1.20806 7.72774
    endloop
  endfacet
  facet normal -1 0 0
    outer loop
      vertex 0 1.20806 7.72774
      vertex 0 0 7.9
      vertex 0 1.14273 7.9
    endloop
  endfacet
  facet normal -1 0 0
    outer loop
      vertex 0 47.3589 6.45818
      vertex 0 50 7.9
      vertex 0 50 0
    endloop
  endfacet
  facet normal -1 -0 0
    outer loop
      vertex 0 50 7.9
      vertex 0 48.7919 7.72774
      vertex 0 48.8573 7.9
    endloop
  endfacet
  facet normal -1 0 0
    outer loop
      vertex 0 50 7.9
      vertex 0 47.3589 6.45818
      vertex 0 48.7919 7.72774
    endloop
  endfacet
  facet normal -1 0 0
    outer loop
      vertex 0 50 0
      vertex 0 46.4294 6.22909
      vertex 0 47.3589 6.45818
    endloop
  endfacet
  facet normal -1 0 0
    outer loop
      vertex 0 50 0
      vertex 0 45.5 6
      vertex 0 46.4294 6.22909
    endloop
  endfacet
  facet normal -1 0 0
    outer loop
      vertex 0 40 0
      vertex 0 45.5 6
      vertex 0 50 0
    endloop
  endfacet
  facet normal -1 -0 0
    outer loop
      vertex 0 45.5 6
      vertex 0 40 0
      vertex 0 44.5706 6.22909
    endloop
  endfacet
  facet normal -1 -0 0
    outer loop
      vertex 0 44.5706 6.22909
      vertex 0 40 0
      vertex 0 43.6411 6.45818
    endloop
  endfacet
  facet normal -1 0 0
    outer loop
      vertex 0 40 7.9
      vertex 0 43.6411 6.45818
      vertex 0 40 0
    endloop
  endfacet
  facet normal -1 0 0
    outer loop
      vertex 0 43.6411 6.45818
      vertex 0 40 7.9
      vertex 0 42.2081 7.72774
    endloop
  endfacet
  facet normal -1 0 0
    outer loop
      vertex 0 42.2081 7.72774
      vertex 0 40 7.9
      vertex 0 42.1427 7.9
    endloop
  endfacet
  facet normal -1 0 0
    outer loop
      vertex 0 13 0
      vertex 0 37 7.9
      vertex 0 37 0
    endloop
  endfacet
  facet normal -1 -0 0
    outer loop
      vertex 0 37 7.9
      vertex 0 13 0
      vertex 0 13 7.9
    endloop
  endfacet
  facet normal -0 0 1
    outer loop
      vertex 0 1.14273 7.9
      vertex 7.9 0 7.9
      vertex 7.9 1.14273 7.9
    endloop
  endfacet
  facet normal 0 0 1
    outer loop
      vertex 7.9 0 7.9
      vertex 0 1.14273 7.9
      vertex 0 0 7.9
    endloop
  endfacet
  facet normal -0 0 1
    outer loop
      vertex 0 50 7.9
      vertex 7.9 48.8573 7.9
      vertex 7.9 50 7.9
    endloop
  endfacet
  facet normal 0 0 1
    outer loop
      vertex 7.9 48.8573 7.9
      vertex 0 50 7.9
      vertex 0 48.8573 7.9
    endloop
  endfacet
  facet normal -0 0 1
    outer loop
      vertex 0 37 7.9
      vertex 1 13 7.9
      vertex 1 37 7.9
    endloop
  endfacet
  facet normal 0 0 1
    outer loop
      vertex 1 13 7.9
      vertex 0 37 7.9
      vertex 0 13 7.9
    endloop
  endfacet
  facet normal 0 0 1
    outer loop
      vertex 7.9 42.1427 7.9
      vertex 7 40 7.9
      vertex 7.9 40 7.9
    endloop
  endfacet
  facet normal 0 0 1
    outer loop
      vertex 1 37 7.9
      vertex 7 37 7.9
      vertex 7 40 7.9
    endloop
  endfacet
  facet normal 0 0 1
    outer loop
      vertex 7 37 7.9
      vertex 1 37 7.9
      vertex 7 13 7.9
    endloop
  endfacet
  facet normal 0 0 1
    outer loop
      vertex 1 37 7.9
      vertex 7 40 7.9
      vertex 1 40 7.9
    endloop
  endfacet
  facet normal 0 0 1
    outer loop
      vertex 7.9 42.1427 7.9
      vertex 1 40 7.9
      vertex 7 40 7.9
    endloop
  endfacet
  facet normal -0 0 1
    outer loop
      vertex 0 42.1427 7.9
      vertex 1 40 7.9
      vertex 7.9 42.1427 7.9
    endloop
  endfacet
  facet normal 0 0 1
    outer loop
      vertex 1 40 7.9
      vertex 0 42.1427 7.9
      vertex 0 40 7.9
    endloop
  endfacet
  facet normal -0 0 1
    outer loop
      vertex 7 37 7.9
      vertex 7.9 13 7.9
      vertex 7.9 37 7.9
    endloop
  endfacet
  facet normal 0 0 1
    outer loop
      vertex 7.9 13 7.9
      vertex 7 37 7.9
      vertex 7 13 7.9
    endloop
  endfacet
  facet normal -0 0 1
    outer loop
      vertex 7 10 7.9
      vertex 7.9 7.85726 7.9
      vertex 7.9 10 7.9
    endloop
  endfacet
  facet normal 0 0 1
    outer loop
      vertex 1 13 7.9
      vertex 7 13 7.9
      vertex 1 37 7.9
    endloop
  endfacet
  facet normal 0 0 1
    outer loop
      vertex 7 13 7.9
      vertex 1 13 7.9
      vertex 7 10 7.9
    endloop
  endfacet
  facet normal 0 0 1
    outer loop
      vertex 1 10 7.9
      vertex 7 10 7.9
      vertex 1 13 7.9
    endloop
  endfacet
  facet normal 0 0 1
    outer loop
      vertex 7 10 7.9
      vertex 1 10 7.9
      vertex 7.9 7.85726 7.9
    endloop
  endfacet
  facet normal 0 0 1
    outer loop
      vertex 0 7.85726 7.9
      vertex 1 10 7.9
      vertex 0 10 7.9
    endloop
  endfacet
  facet normal 0 0 1
    outer loop
      vertex 1 10 7.9
      vertex 0 7.85726 7.9
      vertex 7.9 7.85726 7.9
    endloop
  endfacet
  facet normal 1 0 0
    outer loop
      vertex 7.9 7.79193 7.72774
      vertex 7.9 10 7.9
      vertex 7.9 7.85726 7.9
    endloop
  endfacet
  facet normal 1 0 0
    outer loop
      vertex 7.9 6.35889 6.45818
      vertex 7.9 10 7.9
      vertex 7.9 7.79193 7.72774
    endloop
  endfacet
  facet normal 1 0 0
    outer loop
      vertex 7.9 10 7.9
      vertex 7.9 6.35889 6.45818
      vertex 7.9 10 0
    endloop
  endfacet
  facet normal 1 -0 0
    outer loop
      vertex 7.9 6.16371 6.41007
      vertex 7.9 10 0
      vertex 7.9 6.35889 6.45818
    endloop
  endfacet
  facet normal 1 -0 0
    outer loop
      vertex 7.9 4.5 6
      vertex 7.9 10 0
      vertex 7.9 6.16371 6.41007
    endloop
  endfacet
  facet normal 1 0 0
    outer loop
      vertex 7.9 0 0
      vertex 7.9 4.5 6
      vertex 7.9 2.83629 6.41007
    endloop
  endfacet
  facet normal 1 0 0
    outer loop
      vertex 7.9 0 0
      vertex 7.9 2.83629 6.41007
      vertex 7.9 2.64111 6.45818
    endloop
  endfacet
  facet normal 1 -0 0
    outer loop
      vertex 7.9 0 7.9
      vertex 7.9 1.20806 7.72774
      vertex 7.9 1.14273 7.9
    endloop
  endfacet
  facet normal 1 0 0
    outer loop
      vertex 7.9 0 7.9
      vertex 7.9 2.64111 6.45818
      vertex 7.9 1.20806 7.72774
    endloop
  endfacet
  facet normal 1 0 0
    outer loop
      vertex 7.9 0 0
      vertex 7.9 2.64111 6.45818
      vertex 7.9 0 7.9
    endloop
  endfacet
  facet normal 1 0 0
    outer loop
      vertex 7.9 4.5 6
      vertex 7.9 0 0
      vertex 7.9 10 0
    endloop
  endfacet
  facet normal 1 0 0
    outer loop
      vertex 7.9 48.7919 7.72774
      vertex 7.9 50 7.9
      vertex 7.9 48.8573 7.9
    endloop
  endfacet
  facet normal 1 0 0
    outer loop
      vertex 7.9 47.3589 6.45818
      vertex 7.9 50 7.9
      vertex 7.9 48.7919 7.72774
    endloop
  endfacet
  facet normal 1 0 0
    outer loop
      vertex 7.9 50 7.9
      vertex 7.9 47.3589 6.45818
      vertex 7.9 50 0
    endloop
  endfacet
  facet normal 1 -0 0
    outer loop
      vertex 7.9 47.1637 6.41007
      vertex 7.9 50 0
      vertex 7.9 47.3589 6.45818
    endloop
  endfacet
  facet normal 1 -0 0
    outer loop
      vertex 7.9 45.5 6
      vertex 7.9 50 0
      vertex 7.9 47.1637 6.41007
    endloop
  endfacet
  facet normal 1 0 0
    outer loop
      vertex 7.9 40 0
      vertex 7.9 45.5 6
      vertex 7.9 43.8363 6.41007
    endloop
  endfacet
  facet normal 1 0 0
    outer loop
      vertex 7.9 40 0
      vertex 7.9 43.8363 6.41007
      vertex 7.9 43.6411 6.45818
    endloop
  endfacet
  facet normal 1 0 0
    outer loop
      vertex 7.9 40 7.9
      vertex 7.9 43.6411 6.45818
      vertex 7.9 42.2081 7.72774
    endloop
  endfacet
  facet normal 1 -0 0
    outer loop
      vertex 7.9 40 7.9
      vertex 7.9 42.2081 7.72774
      vertex 7.9 42.1427 7.9
    endloop
  endfacet
  facet normal 1 0 0
    outer loop
      vertex 7.9 43.6411 6.45818
      vertex 7.9 40 7.9
      vertex 7.9 40 0
    endloop
  endfacet
  facet normal 1 0 0
    outer loop
      vertex 7.9 45.5 6
      vertex 7.9 40 0
      vertex 7.9 50 0
    endloop
  endfacet
  facet normal 1 -0 0
    outer loop
      vertex 7.9 13 7.9
      vertex 7.9 37 0
      vertex 7.9 37 7.9
    endloop
  endfacet
  facet normal 1 0 0
    outer loop
      vertex 7.9 37 0
      vertex 7.9 13 7.9
      vertex 7.9 13 0
    endloop
  endfacet
  facet normal 0 0 -1
    outer loop
      vertex 0 13 0
      vertex 1 37 0
      vertex 1 13 0
    endloop
  endfacet
  facet normal -0 0 -1
    outer loop
      vertex 1 37 0
      vertex 0 13 0
      vertex 0 37 0
    endloop
  endfacet
  facet normal 0 0 -1
    outer loop
      vertex 7.9 0 0
      vertex 7 10 0
      vertex 7.9 10 0
    endloop
  endfacet
  facet normal 0 0 -1
    outer loop
      vertex 1 13 0
      vertex 7 13 0
      vertex 7 10 0
    endloop
  endfacet
  facet normal 0 0 -1
    outer loop
      vertex 7 13 0
      vertex 1 13 0
      vertex 7 37 0
    endloop
  endfacet
  facet normal 0 0 -1
    outer loop
      vertex 1 13 0
      vertex 7 10 0
      vertex 1 10 0
    endloop
  endfacet
  facet normal 0 0 -1
    outer loop
      vertex 7.9 0 0
      vertex 1 10 0
      vertex 7 10 0
    endloop
  endfacet
  facet normal 0 0 -1
    outer loop
      vertex 0 0 0
      vertex 1 10 0
      vertex 7.9 0 0
    endloop
  endfacet
  facet normal -0 0 -1
    outer loop
      vertex 1 10 0
      vertex 0 0 0
      vertex 0 10 0
    endloop
  endfacet
  facet normal 0 0 -1
    outer loop
      vertex 7 13 0
      vertex 7.9 37 0
      vertex 7.9 13 0
    endloop
  endfacet
  facet normal -0 0 -1
    outer loop
      vertex 7.9 37 0
      vertex 7 13 0
      vertex 7 37 0
    endloop
  endfacet
  facet normal 0 0 -1
    outer loop
      vertex 7 40 0
      vertex 7.9 50 0
      vertex 7.9 40 0
    endloop
  endfacet
  facet normal 0 0 -1
    outer loop
      vertex 1 37 0
      vertex 7 37 0
      vertex 1 13 0
    endloop
  endfacet
  facet normal 0 0 -1
    outer loop
      vertex 7 37 0
      vertex 1 37 0
      vertex 7 40 0
    endloop
  endfacet
  facet normal 0 0 -1
    outer loop
      vertex 1 40 0
      vertex 7 40 0
      vertex 1 37 0
    endloop
  endfacet
  facet normal 0 0 -1
    outer loop
      vertex 7 40 0
      vertex 1 40 0
      vertex 7.9 50 0
    endloop
  endfacet
  facet normal 0 0 -1
    outer loop
      vertex 0 50 0
      vertex 1 40 0
      vertex 0 40 0
    endloop
  endfacet
  facet normal 0 0 -1
    outer loop
      vertex 1 40 0
      vertex 0 50 0
      vertex 7.9 50 0
    endloop
  endfacet
  facet normal 0 -1 0
    outer loop
      vertex 0 0 0
      vertex 7.9 0 7.9
      vertex 0 0 7.9
    endloop
  endfacet
  facet normal 0 -1 -0
    outer loop
      vertex 7.9 0 7.9
      vertex 0 0 0
      vertex 7.9 0 0
    endloop
  endfacet
  facet normal 0 1 -0
    outer loop
      vertex 7.9 50 0
      vertex 0 50 7.9
      vertex 7.9 50 7.9
    endloop
  endfacet
  facet normal 0 1 0
    outer loop
      vertex 0 50 7.9
      vertex 7.9 50 0
      vertex 0 50 0
    endloop
  endfacet
  facet normal 1 -0 0
    outer loop
      vertex 7 10 7.9
      vertex 7 13 0
      vertex 7 13 7.9
    endloop
  endfacet
  facet normal 1 0 0
    outer loop
      vertex 7 13 0
      vertex 7 10 7.9
      vertex 7 10 0
    endloop
  endfacet
  facet normal 0 -1 0
    outer loop
      vertex 7 13 0
      vertex 7.9 13 7.9
      vertex 7 13 7.9
    endloop
  endfacet
  facet normal 0 -1 -0
    outer loop
      vertex 7.9 13 7.9
      vertex 7 13 0
      vertex 7.9 13 0
    endloop
  endfacet
  facet normal 0 1 -0
    outer loop
      vertex 7.9 10 0
      vertex 7 10 7.9
      vertex 7.9 10 7.9
    endloop
  endfacet
  facet normal 0 1 0
    outer loop
      vertex 7 10 7.9
      vertex 7.9 10 0
      vertex 7 10 0
    endloop
  endfacet
  facet normal 1 -0 0
    outer loop
      vertex 7 37 7.9
      vertex 7 40 0
      vertex 7 40 7.9
    endloop
  endfacet
  facet normal 1 0 0
    outer loop
      vertex 7 40 0
      vertex 7 37 7.9
      vertex 7 37 0
    endloop
  endfacet
  facet normal 0 1 -0
    outer loop
      vertex 7.9 37 0
      vertex 7 37 7.9
      vertex 7.9 37 7.9
    endloop
  endfacet
  facet normal 0 1 0
    outer loop
      vertex 7 37 7.9
      vertex 7.9 37 0
      vertex 7 37 0
    endloop
  endfacet
  facet normal 0 -1 0
    outer loop
      vertex 7 40 0
      vertex 7.9 40 7.9
      vertex 7 40 7.9
    endloop
  endfacet
  facet normal 0 -1 -0
    outer loop
      vertex 7.9 40 7.9
      vertex 7 40 0
      vertex 7.9 40 0
    endloop
  endfacet
  facet normal -1 0 0
    outer loop
      vertex 1 10 0
      vertex 1 13 7.9
      vertex 1 13 0
    endloop
  endfacet
  facet normal -1 -0 0
    outer loop
      vertex 1 13 7.9
      vertex 1 10 0
      vertex 1 10 7.9
    endloop
  endfacet
  facet normal 0 -1 0
    outer loop
      vertex 0 13 0
      vertex 1 13 7.9
      vertex 0 13 7.9
    endloop
  endfacet
  facet normal 0 -1 -0
    outer loop
      vertex 1 13 7.9
      vertex 0 13 0
      vertex 1 13 0
    endloop
  endfacet
  facet normal 0 1 -0
    outer loop
      vertex 1 10 0
      vertex 0 10 7.9
      vertex 1 10 7.9
    endloop
  endfacet
  facet normal 0 1 0
    outer loop
      vertex 0 10 7.9
      vertex 1 10 0
      vertex 0 10 0
    endloop
  endfacet
  facet normal -1 0 0
    outer loop
      vertex 1 37 0
      vertex 1 40 7.9
      vertex 1 40 0
    endloop
  endfacet
  facet normal -1 -0 0
    outer loop
      vertex 1 40 7.9
      vertex 1 37 0
      vertex 1 37 7.9
    endloop
  endfacet
  facet normal 0 -1 0
    outer loop
      vertex 0 40 0
      vertex 1 40 7.9
      vertex 0 40 7.9
    endloop
  endfacet
  facet normal 0 -1 -0
    outer loop
      vertex 1 40 7.9
      vertex 0 40 0
      vertex 1 40 0
    endloop
  endfacet
  facet normal 0 1 -0
    outer loop
      vertex 1 37 0
      vertex 0 37 7.9
      vertex 1 37 7.9
    endloop
  endfacet
  facet normal 0 1 0
    outer loop
      vertex 0 37 7.9
      vertex 1 37 0
      vertex 0 37 0
    endloop
  endfacet
  facet normal 0 -0.239313 0.970943
    outer loop
      vertex 0 47.3589 6.45818
      vertex 7.9 47.1637 6.41007
      vertex 7.9 47.3589 6.45818
    endloop
  endfacet
  facet normal -7.79446e-008 -0.239316 0.970942
    outer loop
      vertex 7.9 47.1637 6.41007
      vertex 0 47.3589 6.45818
      vertex 0 46.4294 6.22909
    endloop
  endfacet
  facet normal -9.52742e-008 -0.239316 0.970942
    outer loop
      vertex 0 46.4294 6.22909
      vertex 7.9 45.5 6
      vertex 7.9 47.1637 6.41007
    endloop
  endfacet
  facet normal -5.86052e-008 -0.239315 0.970942
    outer loop
      vertex 7.9 45.5 6
      vertex 0 46.4294 6.22909
      vertex 0 45.5 6
    endloop
  endfacet
  facet normal 0 0.935014 0.35461
    outer loop
      vertex 7.9 42.2081 7.72774
      vertex 0 42.1427 7.9
      vertex 7.9 42.1427 7.9
    endloop
  endfacet
  facet normal 0 0.935014 0.35461
    outer loop
      vertex 0 42.1427 7.9
      vertex 7.9 42.2081 7.72774
      vertex 0 42.2081 7.72774
    endloop
  endfacet
  facet normal 0 -0.663123 0.74851
    outer loop
      vertex 0 48.7919 7.72774
      vertex 7.9 47.3589 6.45818
      vertex 7.9 48.7919 7.72774
    endloop
  endfacet
  facet normal 0 -0.663123 0.74851
    outer loop
      vertex 7.9 47.3589 6.45818
      vertex 0 48.7919 7.72774
      vertex 0 47.3589 6.45818
    endloop
  endfacet
  facet normal 0 -0.935014 0.35461
    outer loop
      vertex 0 48.7919 7.72774
      vertex 7.9 48.8573 7.9
      vertex 0 48.8573 7.9
    endloop
  endfacet
  facet normal 0 -0.935014 0.35461
    outer loop
      vertex 7.9 48.8573 7.9
      vertex 0 48.7919 7.72774
      vertex 7.9 48.7919 7.72774
    endloop
  endfacet
  facet normal -0 0.663123 0.74851
    outer loop
      vertex 0 43.6411 6.45818
      vertex 7.9 42.2081 7.72774
      vertex 7.9 43.6411 6.45818
    endloop
  endfacet
  facet normal 0 0.663123 0.74851
    outer loop
      vertex 7.9 42.2081 7.72774
      vertex 0 43.6411 6.45818
      vertex 0 42.2081 7.72774
    endloop
  endfacet
  facet normal -7.79446e-008 0.239316 0.970942
    outer loop
      vertex 0 43.6411 6.45818
      vertex 7.9 43.8363 6.41007
      vertex 0 44.5706 6.22909
    endloop
  endfacet
  facet normal 0 0.239313 0.970943
    outer loop
      vertex 7.9 43.8363 6.41007
      vertex 0 43.6411 6.45818
      vertex 7.9 43.6411 6.45818
    endloop
  endfacet
  facet normal -5.86052e-008 0.239315 0.970942
    outer loop
      vertex 0 44.5706 6.22909
      vertex 7.9 45.5 6
      vertex 0 45.5 6
    endloop
  endfacet
  facet normal -9.52742e-008 0.239316 0.970942
    outer loop
      vertex 7.9 45.5 6
      vertex 0 44.5706 6.22909
      vertex 7.9 43.8363 6.41007
    endloop
  endfacet
  facet normal 0 -0.239316 0.970942
    outer loop
      vertex 0 6.35889 6.45818
      vertex 7.9 6.16371 6.41007
      vertex 7.9 6.35889 6.45818
    endloop
  endfacet
  facet normal 2.65787e-009 -0.239316 0.970942
    outer loop
      vertex 7.9 6.16371 6.41007
      vertex 0 6.35889 6.45818
      vertex 0 5.42945 6.22909
    endloop
  endfacet
  facet normal -5.02449e-008 -0.239316 0.970942
    outer loop
      vertex 0 5.42945 6.22909
      vertex 7.9 4.5 6
      vertex 7.9 6.16371 6.41007
    endloop
  endfacet
  facet normal -5.86052e-008 -0.239316 0.970942
    outer loop
      vertex 7.9 4.5 6
      vertex 0 5.42945 6.22909
      vertex 0 4.5 6
    endloop
  endfacet
  facet normal 0 0.935016 0.354605
    outer loop
      vertex 7.9 1.20806 7.72774
      vertex 0 1.14273 7.9
      vertex 7.9 1.14273 7.9
    endloop
  endfacet
  facet normal 0 0.935016 0.354605
    outer loop
      vertex 0 1.14273 7.9
      vertex 7.9 1.20806 7.72774
      vertex 0 1.20806 7.72774
    endloop
  endfacet
  facet normal 0 -0.663123 0.748511
    outer loop
      vertex 0 7.79193 7.72774
      vertex 7.9 6.35889 6.45818
      vertex 7.9 7.79193 7.72774
    endloop
  endfacet
  facet normal 0 -0.663123 0.748511
    outer loop
      vertex 7.9 6.35889 6.45818
      vertex 0 7.79193 7.72774
      vertex 0 6.35889 6.45818
    endloop
  endfacet
  facet normal 0 -0.935017 0.354604
    outer loop
      vertex 0 7.79193 7.72774
      vertex 7.9 7.85726 7.9
      vertex 0 7.85726 7.9
    endloop
  endfacet
  facet normal 0 -0.935017 0.354604
    outer loop
      vertex 7.9 7.85726 7.9
      vertex 0 7.79193 7.72774
      vertex 7.9 7.79193 7.72774
    endloop
  endfacet
  facet normal -0 0.663123 0.748511
    outer loop
      vertex 0 2.64111 6.45818
      vertex 7.9 1.20806 7.72774
      vertex 7.9 2.64111 6.45818
    endloop
  endfacet
  facet normal 0 0.663123 0.748511
    outer loop
      vertex 7.9 1.20806 7.72774
      vertex 0 2.64111 6.45818
      vertex 0 1.20806 7.72774
    endloop
  endfacet
  facet normal 5.6913e-009 0.239316 0.970942
    outer loop
      vertex 0 2.64111 6.45818
      vertex 7.9 2.83629 6.41007
      vertex 0 3.57055 6.22909
    endloop
  endfacet
  facet normal 0 0.239316 0.970942
    outer loop
      vertex 7.9 2.83629 6.41007
      vertex 0 2.64111 6.45818
      vertex 7.9 2.64111 6.45818
    endloop
  endfacet
  facet normal -5.86052e-008 0.239315 0.970942
    outer loop
      vertex 0 3.57055 6.22909
      vertex 7.9 4.5 6
      vertex 0 4.5 6
    endloop
  endfacet
  facet normal -4.85502e-008 0.239315 0.970942
    outer loop
      vertex 7.9 4.5 6
      vertex 0 3.57055 6.22909
      vertex 7.9 2.83629 6.41007
    endloop
  endfacet
endsolid OpenSCAD_Model
